<svg width="26" height="12" viewBox="0 0 26 12" fill="none" xmlns="http://www.w3.org/2000/svg">
<path d="M5.66445 6.53955C5.06875 7.16943 4.37295 7.48438 3.57705 7.48438C2.63955 7.48438 1.89248 7.15723 1.33584 6.50293C0.7792 5.84375 0.500879 4.97949 0.500879 3.91016C0.500879 3.20703 0.642481 2.56982 0.925684 1.99854C1.20889 1.42725 1.61172 0.98291 2.13418 0.665527C2.65664 0.348145 3.26211 0.189453 3.95059 0.189453C5.02481 0.189453 5.87686 0.589844 6.50674 1.39062C7.13662 2.19141 7.45156 3.26318 7.45156 4.60596V5.104C7.45156 7.02783 7.01699 8.49512 6.14785 9.50586C5.27871 10.5166 3.98232 11.0293 2.25869 11.0439H2.04629V9.57178H2.30264C3.35244 9.55713 4.15811 9.30566 4.71963 8.81738C5.28115 8.32422 5.59609 7.56494 5.66445 6.53955ZM3.95059 6.09277C4.30703 6.09277 4.6415 5.99023 4.954 5.78516C5.2665 5.58008 5.5082 5.29688 5.6791 4.93555V4.23975C5.6791 3.45361 5.51797 2.82129 5.1957 2.34277C4.87344 1.86426 4.45596 1.625 3.94326 1.625C3.43057 1.625 3.02041 1.8374 2.71279 2.26221C2.41006 2.68213 2.25869 3.21436 2.25869 3.85889C2.25869 4.52783 2.4125 5.06738 2.72012 5.47754C3.02773 5.8877 3.43789 6.09277 3.95059 6.09277ZM10.03 9.125C10.362 9.125 10.6184 9.22021 10.799 9.41064C10.9797 9.59619 11.07 9.83057 11.07 10.1138C11.07 10.3921 10.9797 10.624 10.799 10.8096C10.6184 10.9902 10.362 11.0806 10.03 11.0806C9.7126 11.0806 9.46113 10.9902 9.27559 10.8096C9.09004 10.6289 8.99726 10.397 8.99726 10.1138C8.99726 9.83057 9.0876 9.59619 9.26826 9.41064C9.44893 9.22021 9.70283 9.125 10.03 9.125ZM10.03 2.90674C10.362 2.90674 10.6184 3.00195 10.799 3.19238C10.9797 3.37793 11.07 3.6123 11.07 3.89551C11.07 4.17383 10.9797 4.40576 10.799 4.59131C10.6184 4.77197 10.362 4.8623 10.03 4.8623C9.7126 4.8623 9.46113 4.77197 9.27559 4.59131C9.09004 4.41064 8.99726 4.17871 8.99726 3.89551C8.99726 3.6123 9.0876 3.37793 9.26826 3.19238C9.44893 3.00195 9.70283 2.90674 10.03 2.90674ZM18.5483 7.19873H19.874V8.62695H18.5483V11H16.7686V8.62695H12.1616L12.1104 7.54297L16.71 0.335938H18.5483V7.19873ZM13.978 7.19873H16.7686V2.74561L16.6367 2.97998L13.978 7.19873ZM25.5726 11H23.8001V2.43799L21.1854 3.33154V1.83008L25.3455 0.299316H25.5726V11Z" fill="#26232C"/>
</svg>
