<svg width="36" height="15" viewBox="0 0 36 15" fill="none" xmlns="http://www.w3.org/2000/svg">
<rect width="36" height="15" rx="6" fill="#41CF69"/>
<path d="M12.3598 11.5H11.2123V6.89062C11.2123 6.34049 11.2253 5.9043 11.2514 5.58203C11.1765 5.66016 11.0837 5.74642 10.973 5.84082C10.8656 5.93522 10.501 6.2347 9.8793 6.73926L9.30313 6.01172L11.4027 4.36133H12.3598V11.5ZM16.8254 7.04199C17.5448 7.04199 18.1145 7.23242 18.5344 7.61328C18.9543 7.99414 19.1643 8.51335 19.1643 9.1709C19.1643 9.93262 18.925 10.5283 18.4465 10.958C17.9712 11.3844 17.2941 11.5977 16.4152 11.5977C15.6177 11.5977 14.9911 11.4691 14.5354 11.2119V10.1719C14.799 10.3216 15.1018 10.4372 15.4436 10.5186C15.7854 10.5999 16.1027 10.6406 16.3957 10.6406C16.9133 10.6406 17.3072 10.5251 17.5773 10.2939C17.8475 10.0628 17.9826 9.72428 17.9826 9.27832C17.9826 8.42546 17.439 7.99902 16.3518 7.99902C16.1988 7.99902 16.01 8.0153 15.7854 8.04785C15.5607 8.07715 15.3638 8.11133 15.1945 8.15039L14.6818 7.84766L14.9553 4.36133H18.6662V5.38184H15.966L15.8049 7.14941C15.9188 7.12988 16.0572 7.1071 16.2199 7.08105C16.3859 7.05501 16.5878 7.04199 16.8254 7.04199ZM20.7393 6.5C20.7393 6.98503 20.7865 7.34635 20.8809 7.58398C20.9753 7.82161 21.1299 7.94043 21.3447 7.94043C21.7744 7.94043 21.9893 7.46029 21.9893 6.5C21.9893 5.53971 21.7744 5.05957 21.3447 5.05957C21.1299 5.05957 20.9753 5.17839 20.8809 5.41602C20.7865 5.65365 20.7393 6.01497 20.7393 6.5ZM22.9365 6.49023C22.9365 7.23893 22.8014 7.80208 22.5312 8.17969C22.2643 8.55404 21.8688 8.74121 21.3447 8.74121C20.8499 8.74121 20.4658 8.54753 20.1924 8.16016C19.9222 7.76953 19.7871 7.21289 19.7871 6.49023C19.7871 5.0026 20.3063 4.25879 21.3447 4.25879C21.8558 4.25879 22.248 4.45247 22.5215 4.83984C22.7982 5.22396 22.9365 5.77409 22.9365 6.49023ZM25.3877 9.35156C25.3877 9.83659 25.4349 10.1995 25.5293 10.4404C25.627 10.6813 25.7832 10.8018 25.998 10.8018C26.4245 10.8018 26.6377 10.3184 26.6377 9.35156C26.6377 8.39779 26.4245 7.9209 25.998 7.9209C25.7832 7.9209 25.627 8.03809 25.5293 8.27246C25.4349 8.50684 25.3877 8.86654 25.3877 9.35156ZM27.585 9.35156C27.585 10.1003 27.4499 10.6618 27.1797 11.0361C26.9095 11.4105 26.5156 11.5977 25.998 11.5977C25.5033 11.5977 25.1191 11.4056 24.8457 11.0215C24.5723 10.6341 24.4355 10.0775 24.4355 9.35156C24.4355 7.86393 24.9564 7.12012 25.998 7.12012C26.4993 7.12012 26.8883 7.31217 27.165 7.69629C27.445 8.0804 27.585 8.63216 27.585 9.35156ZM26.1348 4.36133L22.1748 11.5H21.2275L25.1875 4.36133H26.1348Z" fill="white"/>
</svg>
